<?xml version="1.0" encoding="UTF-8"?><svg xmlns="http://www.w3.org/2000/svg" xmlns:xlink="http://www.w3.org/1999/xlink" height="516.1" preserveAspectRatio="xMidYMid meet" version="1.0" viewBox="-4.7 -7.0 510.2 516.1" width="510.2" zoomAndPan="magnify"><g><g id="change1_1"><path d="M219.3,6.5c77.6-13.5,146.2,11,199.2,59S501,185.4,501.4,257c0.1,14.8-1,29.5-3.5,44.1 c-9.5,56-40.2,108.1-84.5,143.6S310,491.3,244.7,497.2" fill="#ffb52e"/></g></g><g><g id="change2_1"><path d="M71.6,78c-7.1,8.4-14.1,16.8-20.6,25.7C20.6,145.1,3.5,196.1,2.8,247.5s14.9,102.8,44.1,145.1 c51.1,74,145.8,116.5,234.5,101.7c72.3-12,137.4-61.1,168.9-127.3c30.3-63.7,29.3-139.9,4.7-206c-6.1-16.4-13.5-32.2-22.7-47.1 c-35.2-57-96.7-97.1-163.1-106.3S132.7,20.4,83.4,65.7" fill="#ffd718"/></g></g><g id="change3_1"><ellipse cx="242.1" cy="254.2" fill="#f4ba00" rx="189.2" ry="200.7"/></g><g><g id="change4_1"><path d="M347.3,269.6c-7.2-14.4-21.7-23.6-35.5-32c14.9-4,25.6-18.9,26.4-34.3c0.8-15.4-7.3-30.5-19.4-40.1 c-12.1-9.6-27.8-13.9-43.2-14.2c-1.1-10.2-2.2-20.4-3.3-30.6c-0.3-2.8-0.7-5.8-2.1-8.2c-4.1-7.1-14.3-6.6-22.4-5.2 c-2.1,14.1-2.2,28.5-0.4,42.7c-4.9,1.7-10.3,1.9-15.2,0.6c-0.8-13.9-1.6-27.9-2.4-41.8c-10.1-0.5-20.1-1-30.2-1.5l-0.3,3.6 c-0.1,13.2-0.2,26.4-0.4,39.6c-15.1,1-30.2,1.2-45.2,0.5c0.8,10.1,1.6,20.3,2.4,30.4c8.6-0.6,17.1-1.2,25.7-1.7 c1,44.6,1.6,89.2,1.6,133.8c-10.4-0.4-20.8-0.3-31.1,0.5c0.8,10.4,1.1,20.8,1,31.3c14.8-0.2,29.6,0.9,44.3,3.2 c1.3,13.3,2.5,26.5,3.8,39.8c7.7,0.3,15.4,0.6,23.1,0.9c2-12.8,2.4-25.9,1.2-38.8c4.4,0,8.8,0,13.2,0c1.5,0,3.2,0.1,4.4,1.1 c1.1,1,1.3,2.6,1.4,4c1.1,11.7,2.3,23.4,3.4,35.1c6.8-0.1,13.7-0.2,20.5-0.3c1.1,0,2.4-0.1,3.2-0.9c0.7-0.7,0.8-1.8,0.8-2.8 c0.7-12.4,1.3-24.7,2-37.1c21.4,1.9,44.3-3.6,59.9-18.4S357,288.9,347.3,269.6z M226.7,177.6c3.4-0.6,6.9-0.5,10.4-0.4 c11.5,0.4,23.5,1,33.5,6.7c10,5.7,17.2,18.1,13.2,28.8c-2.5,6.6-8.7,11.3-15.3,13.7c-6.7,2.4-13.8,2.8-20.9,3.2 c-5.6,0.3-11.2,0.6-16.7,0.9c-0.9,0.1-2,0.1-2.7-0.5c-0.9-0.7-1-1.9-1-3.1c-0.5-15.5-1-30.9-1.3-46.4L226.7,177.6z M297.7,296.8 c-4.5,8.3-13,14-22.2,16c-4.4,1-9,1.2-13.5,1.4c-10,0.4-20,0.9-30,1.3c-0.5,0-1.1,0-1.6-0.3c-0.6-0.4-0.7-1.2-0.8-1.9 c-1.9-18.7-2.5-37.5-1.9-56.3l-1-3.8c13.8-0.1,27.6,0.9,41.2,3.2c10.7,1.8,22.2,4.9,28.5,13.7 C302.1,277.7,302.2,288.6,297.7,296.8z" fill="#fff"/></g></g><g><g fill="#231815" id="change5_1"><path d="M503.7,242.5c-1.6-27-7.2-53.7-16.7-79.1c-9.4-25.4-22.6-49.3-39.3-70.6C431.3,72,411.5,54,389.4,39.3 C367.9,24.9,344.1,14,319.1,7.4c-25.9-6.8-53-8.8-79.7-6.4c-6.8,0.6-13.6,1.5-20.4,2.7c-12.7,1.1-25.4,3.3-37.7,6.4 c-0.2,0.1-0.4,0.1-0.6,0.2c-3,0.8-6,1.6-9,2.5c-0.2,0.1-0.5,0.1-0.7,0.2c-1.3,0.4-2.5,0.8-3.8,1.2c-0.3,0.1-0.5,0.2-0.8,0.3 c-3,1-5.9,2-8.8,3.1c-0.2,0.1-0.4,0.2-0.7,0.2c-1.3,0.5-2.6,1-3.9,1.5c-0.2,0.1-0.3,0.1-0.5,0.2c-2.9,1.2-5.9,2.4-8.8,3.7 c-0.2,0.1-0.3,0.1-0.5,0.2c-1.4,0.6-2.8,1.2-4.1,1.9c-0.1,0-0.1,0-0.2,0.1c-2.9,1.4-5.8,2.8-8.6,4.3c-0.2,0.1-0.4,0.2-0.5,0.3 c-1.3,0.7-2.7,1.4-4,2.1c0,0-0.1,0-0.1,0.1c-1.4,0.8-2.8,1.6-4.2,2.4c-0.1,0.1-0.3,0.2-0.4,0.3c-1.2,0.7-2.3,1.4-3.5,2 c-0.2,0.1-0.3,0.2-0.5,0.3c-0.1,0.1-0.3,0.2-0.4,0.2c-1.4,0.9-2.9,1.8-4.3,2.7c-0.1,0.1-0.2,0.2-0.4,0.2c-0.9,0.5-1.7,1.1-2.5,1.7 c-0.4,0.2-0.7,0.5-1.1,0.7c-0.5,0.3-1,0.7-1.5,1c-0.9,0.6-1.9,1.3-2.8,1.9c-0.5,0.4-1,0.7-1.5,1.1c-1.1,0.8-2.1,1.5-3.2,2.3 c-0.6,0.5-1.2,0.9-1.8,1.4c-1,0.7-1.9,1.5-2.9,2.2c-0.6,0.5-1.2,1-1.9,1.5c-0.7,0.6-1.4,1.1-2.1,1.7c-0.6,0.5-1.3,1-1.9,1.6 c-0.7,0.6-1.4,1.2-2.1,1.8c-0.6,0.5-1.1,1-1.7,1.5c-1.2,1.1-2.5,2.2-3.7,3.3c-1.3,1.2-1,2.7-0.1,3.7c1,1,2.6,1.4,4,0.2 c0.3-0.3,0.7-0.6,1-0.9c19.4-17.5,41.9-31.5,66.1-41.3c0.6-0.2,1.2-0.5,1.8-0.7c0.4-0.2,0.9-0.3,1.3-0.5c1.2-0.5,2.4-0.9,3.6-1.4 c0,0,0,0,0.1,0c18.1-6.7,37.1-11.2,56.3-13.2c0.3,0,0.6-0.1,1-0.1c1.1-0.1,2.2-0.2,3.3-0.3c1-0.1,2-0.2,3.1-0.2c0.3,0,0.7,0,1-0.1 c43.8-2.9,87.6,7.5,125.8,29.4c2.3,1.3,4.6,2.7,6.9,4.1c0.4,0.5,0.9,0.8,1.5,0.9c16.5,10.4,31.8,22.9,45.2,37.2 c16.9,18,30.4,38.7,40.7,61c21.9,47.4,31,101.1,24.4,152.9c-6,47.7-26.3,92.6-59.3,127.7c-29.3,31.2-67.4,54.3-108.8,65.2 c-11.5,2-23,3.6-34.6,4.9c-6.8,0.8-13.6,1.4-20.4,2.1c-27.8-0.1-55.6-5.4-81.7-15.2c-41.8-15.6-79.5-42.8-107-78.1 C25.1,360.7,7.2,309.6,5.6,258.4C4,206.9,19.2,155.3,48,112.6c7.7-11.5,16.6-22.1,25.5-32.7c2.3-2.7-1.6-6.7-3.9-3.9 c-9.4,11.2-18.7,22.4-26.8,34.5c-7.3,10.9-13.7,22.4-19.2,34.3c-11.1,24-18.4,49.7-21.7,76C-4.7,273.4,6.3,327.7,32,374 c22.9,41.1,57.8,74.7,99.2,96.8c34.6,18.4,73.6,29,112.8,29.2c0.2,0,0.4,0,0.7,0c0,0,0.1,0,0.1,0c6.3,0,12.6-0.2,18.9-0.7 c12.7-1,25.2-3.2,37.4-6.4c9.5-1.7,18.9-3.6,28.2-5.9c25.3-6.3,50-15.7,71.9-30c22.2-14.5,41.3-33.8,56.9-55.1 c15.7-21.5,27.9-45.7,35.7-71.2C502.5,302.1,505.5,272.1,503.7,242.5z M326.6,20.7C310.5,14,293.8,9,276.6,6 c7.8,0.5,15.5,1.4,23.2,2.8c12.3,2.2,24.4,5.4,36.1,9.6c-3.2,0.5-6.3,1.2-9.3,2.2C326.6,20.7,326.6,20.7,326.6,20.7z M334.6,24.3 c0.4-0.1,0.7-0.1,1.1-0.2c0.6-0.1,1.3-0.2,1.9-0.3c0,0,0.4-0.1,0.5-0.1c0.3,0,0.6-0.1,0.9-0.1c1.3-0.1,2.6-0.2,4-0.3 c0.9,0,1.8-0.5,2.3-1.2c8.5,3.5,16.7,7.4,24.7,11.9c-3.7,0.9-7.4,2.1-10.9,3.6C351.2,32.6,343,28.2,334.6,24.3z M379.6,51.6 c-4.8-3.7-9.7-7.2-14.7-10.5c0.9-0.3,1.8-0.6,2.8-0.9c2.7-0.8,5.5-1.4,8.2-1.8c0.4-0.1,0.7-0.3,1-0.5c10.1,6,19.7,12.8,28.8,20.2 c-4.4,1.5-8.7,3-13.1,4.5C388.4,58.8,384.1,55.1,379.6,51.6z M420.3,92c-7-9-14.8-17.4-23-25.2c4.2-1.4,8.4-2.9,12.6-4.3 c0.3-0.1,0.5-0.2,0.7-0.4c7.2,6.2,14,12.7,20.5,19.7c2.3,2.5,4.6,5.1,6.8,7.7c-5.8,0.8-11.6,1.6-17.4,2.4 C420.5,92,420.4,92,420.3,92z M428.1,102.6c-1.3-1.9-2.6-3.7-4-5.6c6-0.8,11.9-1.7,17.9-2.5c8.5,10.6,16.1,21.9,22.7,33.8 c-6.3,1.5-12.5,3.1-18.8,4.6C440.8,122.4,434.8,112.2,428.1,102.6z M448.4,138c6.2-1.5,12.5-3.1,18.7-4.6c0.1,0,0.2-0.1,0.3-0.1 c2.5,4.7,4.9,9.5,7.1,14.4c2.9,6.4,5.6,12.9,8,19.5c-7,1.6-14.1,2.8-21.3,3.6C457.7,159.7,453.4,148.7,448.4,138z M463,176.2 c7.2-0.8,14.4-2,21.4-3.7c5.6,16.6,9.6,33.7,11.9,51c-7.4,1.7-14.9,2.8-22.5,3.1C471.7,209.5,468,192.6,463,176.2z M345.9,476.5 c-0.9,0.3-1.7,0.5-2.6,0.8c9.6-4.7,19-10,27.9-15.9c0.8,1.5,1.5,3,2.3,4.5C364.5,469.9,355.3,473.5,345.9,476.5z M378.5,463.4 c-0.9-1.7-1.8-3.5-2.6-5.2c4.5-3.2,8.9-6.5,13.2-9.9c2.5-2,4.9-4,7.3-6.1c1.8,2.6,3.6,5.1,5.5,7.7 C394.4,454.9,386.6,459.4,378.5,463.4z M412.7,441.7c-2.1,1.7-4.2,3.3-6.4,4.9c-1.9-2.7-3.9-5.5-5.8-8.2 c7.1-6.5,13.7-13.4,19.9-20.7c3.3,2.6,6.7,5.3,10,7.9C424.8,431.3,418.9,436.7,412.7,441.7z M434.3,421.7 c-3.4-2.7-6.9-5.4-10.3-8.1c0,0,0,0-0.1,0c5.5-6.8,10.7-14,15.4-21.4c2.5,1.1,4.9,2.4,7,4c0.1,0.1,0.2,0.2,0.4,0.3c0,0,0,0,0,0 c0,0,0,0,0,0c0.3,0.2,0.5,0.4,0.8,0.7c0.6,0.5,1.1,1,1.6,1.5c0.9,0.8,1.7,1.7,2.4,2.6C446.3,408.3,440.5,415.2,434.3,421.7z M464.1,382.8c-2.9,4.7-5.9,9.3-9.1,13.7c-3.6-3.9-8-7.1-12.8-9.2c4.3-7.1,8.2-14.5,11.7-22.1c5.5,2.1,11.1,4.2,16.6,6.2 C468.6,375.3,466.4,379.1,464.1,382.8z M473.2,366.7c-0.3-0.2-0.6-0.4-0.9-0.5c-5.3-2-10.7-4-16-6c3.8-8.7,7-17.7,9.7-26.8 c0.4,0.3,0.9,0.4,1.4,0.4c6.7-0.4,13.3-0.8,20-1.3C483.5,344.2,478.8,355.7,473.2,366.7z M493.3,310.6c-1.2,5.4-2.6,10.8-4.2,16.2 c-7.2,0.5-14.5,0.9-21.7,1.4c3.3-12.5,5.7-25.3,7.1-38.2c7.6-1.1,15.1-2.2,22.7-3.3C496.3,294.8,495,302.8,493.3,310.6z M497.7,281.1c-7.6,1.1-15.1,2.2-22.7,3.3c1.5-17.4,1.3-35-0.6-52.4c7.6-0.3,15.2-1.4,22.6-3.1 C498.9,246.2,499.2,263.8,497.7,281.1z" fill="inherit"/><path d="M152.4,308.8c-1.4,0.1-2.9,1.2-2.8,2.8c0.8,10.4,1.1,20.8,1,31.3c0,1.5,1.3,2.8,2.8,2.8 c14-0.1,27.9,0.8,41.7,2.8c1.2,12.5,2.4,24.9,3.6,37.4c0.1,1.5,1.2,2.7,2.8,2.8c7.7,0.3,15.4,0.6,23.1,0.9c1.1,0,2.5-0.9,2.7-2 c1.9-12.2,2.4-24.5,1.5-36.8c3.7-0.1,7.4-0.1,11.1,0c1.5,0.1,1.9,0.4,2.1,2c0.3,2.2,0.4,4.5,0.7,6.8c0.9,9.6,1.9,19.1,2.8,28.7 c0.1,1.5,1.2,2.8,2.8,2.8c5.7-0.1,11.5-0.2,17.2-0.2c2.5,0,5.5,0.3,7.7-1.1c2.5-1.7,2.4-4.7,2.6-7.4c0.6-10.7,1.2-21.4,1.7-32.1 c17.1,1,34.9-2.5,49.4-11.8c14.8-9.5,25-24.8,27.3-42.3c1.2-9.5-0.2-19.1-4.4-27.7c-6.8-13.3-19.1-22.2-31.6-30 c14.4-6.7,23.5-22.8,22.9-38.7c-0.8-19.9-14.4-37.2-31.9-45.7c-9.7-4.7-20.3-7-31-7.5c-1-9.6-2-19.3-3.2-28.9 c-0.5-4.3-1.5-8.7-4.8-11.7c-2.8-2.6-6.5-3.7-10.2-4.2c-4.3-0.5-8.6,0-12.8,0.7c-0.8,0.1-1.8,1.1-1.9,1.9 c-2,13.7-2.3,27.6-0.7,41.4c-3.2,0.8-6.4,0.9-9.6,0.3c-0.7-13.2-1.5-26.4-2.2-39.6c-0.1-1.6-1.2-2.7-2.8-2.8 c-10.1-0.5-20.1-1-30.2-1.5c-1.6-0.1-2.7,1.3-2.8,2.8c-0.4,5.9-0.3,11.8-0.4,17.8c-0.1,7.6-0.1,15.2-0.2,22.8 c-14.1,0.9-28.3,1-42.5,0.3c-1.4-0.1-2.9,1.3-2.8,2.8c0.8,10.1,1.6,20.3,2.4,30.4c0.1,1.4,1.2,2.9,2.8,2.8c7.7-0.5,15.3-1,23-1.6 c0.8,33.8,1.3,67.7,1.5,101.5c0.1,8.8,0.1,17.7,0.1,26.5C171.3,307.9,161.8,308.1,152.4,308.8z M185.3,206.6 c-0.2-9.8-0.4-19.6-0.6-29.4c0-1.4-1.2-2.9-2.8-2.8c-7.7,0.5-15.4,1-23.1,1.6c-0.6-8.2-1.3-16.4-1.9-24.6 c14.1,0.5,28.2,0.4,42.2-0.6c1.5-0.1,2.8-1.2,2.8-2.8c0.1-8.5,0.2-17,0.2-25.4c0-5,0-9.9,0.2-14.9c8.3,0.4,16.6,0.9,24.9,1.3 c0.7,13.1,1.5,26.1,2.2,39.2c0.1,1.2,0.8,2.4,2,2.7c5.5,1.4,11.3,1.3,16.7-0.6c1-0.4,2.2-1.4,2-2.7c-1.7-13.3-1.8-26.9,0.1-40.3 c5.2-0.8,11.6-1.2,15.7,2.1c2.7,2.2,3.2,5.7,3.5,9c0.5,4.7,1,9.5,1.6,14.2c0.6,5.5,1.2,10.9,1.8,16.4c0.2,1.5,1.1,2.7,2.8,2.8 c18.2,0.3,36.9,6.5,48.9,20.8c10.8,12.8,14.7,31.3,6.2,46.3c-4.3,7.6-11.2,13.7-19.7,16c-2.3,0.6-2.7,3.8-0.7,5.1 c13.2,8.1,27.2,16.8,34.5,31c6.9,13.9,4.6,30.8-3,43.9c-8.3,14.3-23,23.3-38.7,27.2c-9.3,2.3-18.9,2.9-28.4,2 c-1.5-0.1-2.7,1.4-2.8,2.8c-0.6,10.6-1.1,21.2-1.7,31.7c-0.1,1.3-0.1,2.6-0.2,3.9c0,0.6-0.1,1.2-0.1,1.8c0,0.2-0.2,0.5-0.1,0.5 c-0.5,0.2-1.6,0-2,0.1c-1.3,0-2.6,0-3.9,0.1c-4.4,0.1-8.9,0.1-13.3,0.2c-0.9-9.8-1.9-19.5-2.8-29.3c-0.2-2.4-0.2-5-1.2-7.2 c-1-2.2-3.1-3.4-5.5-3.6c-2.3-0.3-4.7-0.1-7.1-0.1c-2.7,0-5.5,0-8.2,0c-1.4,0-2.9,1.3-2.8,2.8c1.1,12,0.8,24-0.8,35.9 c-6.1-0.2-12.2-0.5-18.2-0.7c-1.2-12.4-2.4-24.7-3.5-37.1c-0.1-1.1-0.8-2.5-2-2.7c-14-2.2-28.1-3.3-42.2-3.3 c0-8.6-0.3-17.3-0.9-25.9c9.4-0.6,18.8-0.7,28.2-0.3c1.5,0.1,2.8-1.3,2.8-2.8C186.2,276.2,185.9,241.4,185.3,206.6z" fill="inherit"/><path d="M223.4,194.5c0.2,7.9,0.5,15.8,0.7,23.7c0.1,1.8,0.1,3.7,0.2,5.5c0.1,1.8-0.1,3.8,0.4,5.5 c0.4,1.8,1.7,3.3,3.5,3.9c1.7,0.5,3.7,0.2,5.5,0.1c7.5-0.4,15.1-0.6,22.6-1.4c6.9-0.7,13.8-2.1,19.8-5.9 c5.2-3.3,9.6-8.2,11.2-14.3c3-11.8-4.7-24-14.7-29.9c-6.8-4-14.5-5.6-22.2-6.5c-3.8-0.4-7.6-0.6-11.3-0.8 c-4.3-0.2-8.6-0.3-12.9,0.4c-0.7,0.1-1.3,0.7-1.7,1.3c-0.1,0.2-0.2,0.4-0.3,0.6c-0.2,0.7-0.4,1.4-0.6,2.1 c-0.4,1.3-0.3,2.5-0.3,3.8C223.2,186.7,223.3,190.6,223.4,194.5z M228.8,180.5c0-0.1,0.1-0.3,0.1-0.4c2.9-0.3,5.9-0.2,8.8-0.1 c3.1,0.1,6.1,0.2,9.2,0.5c6.1,0.5,12.2,1.5,18,3.7c9.1,3.5,17.6,12.2,17.5,22.6c-0.1,5.1-2.8,9.5-6.6,12.7 c-4.5,3.7-10.2,5.5-15.8,6.4c-6.6,1.1-13.4,1.1-20,1.5c-1.7,0.1-3.4,0.2-5.1,0.3c-0.8,0-1.6,0.1-2.4,0.1c-0.4,0-0.9,0.1-1.3,0.1 c-0.1,0-0.6,0-0.9,0c0,0,0,0,0,0c0.1-0.6-0.1-1.3-0.1-1.9c-0.1-1.9-0.1-3.9-0.2-5.8c-0.3-8-0.5-16-0.7-24 c-0.1-4.1-0.2-8.1-0.3-12.2c0-0.9-0.1-1.8-0.1-2.8c0,0.3-0.1,0.1-0.1,0C228.6,181,228.7,180.7,228.8,180.5z" fill="inherit"/><path d="M254.1,251.7c-9-1-18.1-1.4-27.2-1.3c-1.8,0-3.1,1.8-2.7,3.5c0.2,0.9,0.5,1.9,0.7,2.8c0.4,1.5,0.1,2.5,0,4.4 c-0.1,5.2-0.2,10.4-0.1,15.6c0.1,10.4,0.7,20.8,1.6,31.2c0.2,2.3,0.1,5,0.8,7.2c0.9,2.9,3.6,3.2,6.2,3.1 c5.2-0.2,10.4-0.4,15.6-0.7c5.2-0.2,10.3-0.4,15.5-0.7c4.8-0.2,9.7-0.6,14.4-2c8.9-2.6,16.9-8.5,21.4-16.7 c3.2-6,4.3-12.9,3.1-19.6c-1.2-6.4-4.8-12-9.9-16c-5-3.8-11-6.1-17-7.5C268.9,253.4,261.5,252.5,254.1,251.7z M297,276.9 c2,6.1,1.3,12.9-1.7,18.6c-3.5,6.4-9.5,11.1-16.3,13.5c-4,1.4-8.1,2-12.3,2.3c-4.8,0.3-9.7,0.4-14.5,0.7 c-4.8,0.2-9.6,0.4-14.5,0.6c-1.2,0.1-2.4,0.1-3.5,0.2c-0.5,0-1.1,0-1.6,0.1c0,0-0.1,0-0.1,0c0-0.7-0.2-1.7-0.3-2.4 c-0.1-1.3-0.2-2.5-0.3-3.8c-0.8-9.6-1.3-19.3-1.4-29c-0.1-5.5-0.1-11,0.1-16.4c0-1.7,0.2-3.5-0.1-5.2c13.5,0.1,27,1.1,40.2,3.7 C281.1,261.7,293.3,265.7,297,276.9z" fill="inherit"/><path d="M93.3,134.9c6-8.4,12.6-16.3,19.8-23.6c2.5-2.5-1.4-6.5-3.9-3.9c-15.3,15.6-28,33.7-37.6,53.3 c-10,20.5-16.6,42.6-19.6,65.3c-2.8,21.5-2.4,43.3,1.2,64.7c3.2,19.2,9.2,38,17.6,55.6c8.1,17,18.6,32.9,31.1,47.1 c12.3,14,26.6,26.2,42.4,36.1c15.7,9.9,32.9,17.4,50.8,22.2c18.5,4.9,37.7,6.9,56.8,5.9c18.8-1,37.5-4.9,55.1-11.7 c17.5-6.7,33.8-16,48.5-27.4c14.7-11.4,27.7-25,38.7-40.1c11.2-15.4,20.2-32.4,26.8-50.3c6.8-18.6,11-38.1,12.4-57.9 c1.5-20.3,0.1-40.9-4.1-60.8c-4-19-10.7-37.4-19.7-54.5c-8.8-16.6-19.9-32.1-32.9-45.6c-12.8-13.4-27.5-25-43.6-34.1 c-16.2-9.3-33.8-16.1-52.1-20.1c-20.2-4.4-41.2-5.4-61.7-2.8c-23.2,2.9-45.7,10.3-66.1,21.6c-9.8,5.4-19.1,11.8-27.8,18.9 c-2.8,2.2,1.2,6.1,3.9,3.9c17.6-14.2,37.8-25.2,59.4-32.1c21.2-6.7,43.5-9.3,65.7-7.8c18.3,1.2,36.4,5.4,53.4,12.2 c16.6,6.6,32.2,15.8,46.1,26.9c14.2,11.3,26.8,24.7,37.3,39.5c10.7,15.1,19.3,31.7,25.5,49.2c6.5,18.3,10.3,37.4,11.5,56.7 c1.2,19.7-0.3,39.6-4.6,58.9c-4.1,18.3-10.7,36.1-19.7,52.6c-8.7,16.1-19.6,31-32.5,44.1c-12.6,12.8-26.9,23.9-42.6,32.7 c-15.8,8.9-33,15.3-50.7,19c-18.2,3.8-37,4.6-55.5,2.6c-18.1-2-35.9-6.8-52.5-14.2c-16.5-7.4-31.8-17.1-45.4-28.9 c-13.7-11.9-25.7-25.6-35.7-40.8c-10.2-15.6-18.3-32.7-23.8-50.5c-5.8-18.5-8.9-37.8-9.4-57.2c-0.5-22.5,2.5-45.1,9.1-66.7 C71.1,172.2,80.8,152.6,93.3,134.9z" fill="inherit"/></g></g></svg>