<?xml version="1.0" encoding="UTF-8" standalone="no"?><svg xmlns="http://www.w3.org/2000/svg" xmlns:xlink="http://www.w3.org/1999/xlink" fill="#ffbd59" height="110.4" preserveAspectRatio="xMidYMid meet" version="1" viewBox="0.0 0.0 126.0 110.4" width="126" zoomAndPan="magnify"><g id="change1_1"><path d="M58.746,27.106c0-0.552-0.448-1-1-1s-1,0.448-1,1c0,3.107,2.281,5.685,5.254,6.166v1.19c0,0.552,0.448,1,1,1s1-0.448,1-1 v-1.19c2.974-0.481,5.254-3.059,5.254-6.166c0-3.108-2.281-5.686-5.254-6.167v-8.465c1.863,0.453,3.254,2.123,3.254,4.123 c0,0.552,0.448,1,1,1s1-0.448,1-1c0-3.107-2.281-5.685-5.254-6.166v-1.19c0-0.552-0.448-1-1-1s-1,0.448-1,1v1.19 c-2.974,0.481-5.254,3.059-5.254,6.166c0,3.108,2.281,5.686,5.254,6.167v8.465C60.137,30.776,58.746,29.106,58.746,27.106z M67.254,27.106c0,2-1.392,3.67-3.254,4.123v-8.246C65.863,23.436,67.254,25.107,67.254,27.106z M58.746,16.598 c0-2,1.392-3.67,3.254-4.123v8.246C60.137,20.268,58.746,18.597,58.746,16.598z" fill="inherit"/><path d="M114.441,43.616H125c0.552,0,1-0.448,1-1V10.293c0-0.552-0.448-1-1-1h-5.559V1c0-0.552-0.448-1-1-1H7.559 c-0.552,0-1,0.448-1,1v8.293H1c-0.552,0-1,0.448-1,1v32.323c0,0.552,0.448,1,1,1h10.559v46.592H7.295c-0.552,0-1,0.448-1,1v8.088H1 c-0.552,0-1,0.448-1,1v9.088c0,0.552,0.448,1,1,1h124c0.552,0,1-0.448,1-1v-9.088c0-0.552-0.448-1-1-1h-5.295v-8.088 c0-0.552-0.448-1-1-1h-4.264V43.616z M8.559,2h108.883v7.293H75.618C72.39,6.05,67.926,4.039,63,4.039S53.61,6.05,50.382,9.293 H8.559V2z M63,6.039c8.72,0,15.813,7.094,15.813,15.813S71.72,37.666,63,37.666s-15.813-7.094-15.813-15.813S54.28,6.039,63,6.039z M2,11.293h5.559h41.128c-2.189,2.959-3.5,6.604-3.5,10.559c0,9.822,7.991,17.813,17.813,17.813s17.813-7.991,17.813-17.813 c0-3.955-1.311-7.6-3.5-10.559h41.128H124v30.323h-10.559H12.559H2V11.293z M112.441,43.616v6.718H13.559v-6.718H112.441z M50.339,90.208V67.492c0-4.411-3.589-8-8-8h-0.712c-4.411,0-8,3.589-8,8v22.716h-5.493V52.333h69.732v37.875H50.339z M48.303,66.848h-5.32v-5.32C45.778,61.828,48.003,64.053,48.303,66.848z M40.983,66.848h-5.32c0.3-2.795,2.525-5.02,5.32-5.32 V66.848z M35.627,68.848h12.712v21.36H35.627V68.848z M13.559,52.333h12.575v37.875H13.559V52.333z M124,108.384H2v-7.088h5.295 h111.409H124V108.384z M117.705,99.296H8.295v-7.088h4.264h22.068h14.712h64.102h4.264V99.296z M99.866,90.208V52.333h12.575 v37.875H99.866z" fill="inherit"/><path d="M40.456,79.158H38.39c-0.552,0-1,0.448-1,1s0.448,1,1,1h2.066c0.552,0,1-0.448,1-1S41.008,79.158,40.456,79.158z" fill="inherit"/><path d="M66.379,67.741H61.32c-0.552,0-1,0.448-1,1v5.06c0,0.552,0.448,1,1,1h5.059c0.552,0,1-0.448,1-1v-5.06 C67.379,68.189,66.932,67.741,66.379,67.741z M65.379,72.801H62.32v-3.06h3.059V72.801z" fill="inherit"/><path d="M70.829,77.06V65.292c0-0.552-0.448-1-1-1H57.871c-0.552,0-1,0.448-1,1V77.06l-1.976,5.041 c-0.121,0.308-0.081,0.655,0.105,0.928c0.187,0.273,0.496,0.437,0.826,0.437h16.048c0.331,0,0.64-0.164,0.826-0.437 c0.186-0.273,0.226-0.621,0.105-0.929L70.829,77.06z M58.871,66.292h9.958v9.958h-9.958V66.292z M57.292,81.466l1.261-3.217h10.593 l1.261,3.217H57.292z" fill="inherit"/><path d="M59.444,62.017h8.813c0.552,0,1-0.448,1-1v-3.671c0-0.552-0.448-1-1-1h-8.813c-0.552,0-1,0.448-1,1v3.671 C58.444,61.569,58.892,62.017,59.444,62.017z M60.444,58.346h6.813v1.671h-6.813V58.346z" fill="inherit"/><path d="M87.6,67.741h-5.06c-0.552,0-1,0.448-1,1v5.06c0,0.552,0.448,1,1,1h5.06c0.552,0,1-0.448,1-1v-5.06 C88.6,68.189,88.152,67.741,87.6,67.741z M86.6,72.801h-3.06v-3.06h3.06V72.801z" fill="inherit"/><path d="M94.025,82.101l-1.977-5.041V65.292c0-0.552-0.448-1-1-1H79.092c-0.552,0-1,0.448-1,1V77.06l-1.977,5.041 c-0.121,0.308-0.081,0.656,0.105,0.929c0.187,0.273,0.496,0.437,0.826,0.437h16.048c0.331,0,0.64-0.164,0.826-0.437 C94.106,82.757,94.146,82.409,94.025,82.101z M80.092,66.292h9.957v9.958h-9.957V66.292z M78.513,81.466l1.261-3.217h10.593 l1.261,3.217H78.513z" fill="inherit"/><path d="M80.664,62.017h8.813c0.552,0,1-0.448,1-1v-3.671c0-0.552-0.448-1-1-1h-8.813c-0.552,0-1,0.448-1,1v3.671 C79.664,61.569,80.112,62.017,80.664,62.017z M81.664,58.346h6.813v1.671h-6.813V58.346z" fill="inherit"/></g></svg>